<mxfile host="app.diagrams.net" agent="Mozilla/5.0 (X11; Linux x86_64) AppleWebKit/537.36 (KHTML, like Gecko) Chrome/135.0.0.0 Safari/537.36" version="26.2.9">
  <diagram name="Page-1" id="50sdw9fkYkGzYTHBrALp">
    <mxGraphModel dx="2255" dy="747" grid="1" gridSize="10" guides="1" tooltips="1" connect="1" arrows="1" fold="1" page="1" pageScale="1" pageWidth="827" pageHeight="1169" math="0" shadow="0">
      <root>
        <mxCell id="0" />
        <mxCell id="1" parent="0" />
        <mxCell id="RJzbwRpuguDvopqsICWL-1" value="" style="rounded=1;whiteSpace=wrap;html=1;" parent="1" vertex="1">
          <mxGeometry x="130" y="10" width="512" height="40" as="geometry" />
        </mxCell>
        <mxCell id="RJzbwRpuguDvopqsICWL-2" value="Agriculture (Arrossage automatique)" style="text;html=1;align=center;verticalAlign=middle;whiteSpace=wrap;rounded=0;" parent="1" vertex="1">
          <mxGeometry x="271" y="15" width="230" height="30" as="geometry" />
        </mxCell>
        <mxCell id="RJzbwRpuguDvopqsICWL-16" style="edgeStyle=orthogonalEdgeStyle;rounded=0;orthogonalLoop=1;jettySize=auto;html=1;entryX=0;entryY=0.5;entryDx=0;entryDy=0;" parent="1" source="RJzbwRpuguDvopqsICWL-3" target="RJzbwRpuguDvopqsICWL-7" edge="1">
          <mxGeometry relative="1" as="geometry" />
        </mxCell>
        <mxCell id="RJzbwRpuguDvopqsICWL-31" style="edgeStyle=orthogonalEdgeStyle;rounded=0;orthogonalLoop=1;jettySize=auto;html=1;" parent="1" source="RJzbwRpuguDvopqsICWL-3" edge="1">
          <mxGeometry relative="1" as="geometry">
            <mxPoint x="-10" y="110" as="targetPoint" />
          </mxGeometry>
        </mxCell>
        <mxCell id="RJzbwRpuguDvopqsICWL-3" value="" style="shape=hexagon;perimeter=hexagonPerimeter2;whiteSpace=wrap;html=1;fixedSize=1;size=0;" parent="1" vertex="1">
          <mxGeometry x="60" y="120" width="120" height="80" as="geometry" />
        </mxCell>
        <mxCell id="RJzbwRpuguDvopqsICWL-6" value="Capteur" style="text;html=1;align=center;verticalAlign=middle;whiteSpace=wrap;rounded=0;" parent="1" vertex="1">
          <mxGeometry x="90" y="145" width="60" height="30" as="geometry" />
        </mxCell>
        <mxCell id="RJzbwRpuguDvopqsICWL-17" style="edgeStyle=orthogonalEdgeStyle;rounded=0;orthogonalLoop=1;jettySize=auto;html=1;entryX=0.5;entryY=0;entryDx=0;entryDy=0;" parent="1" source="RJzbwRpuguDvopqsICWL-7" target="RJzbwRpuguDvopqsICWL-8" edge="1">
          <mxGeometry relative="1" as="geometry" />
        </mxCell>
        <mxCell id="RJzbwRpuguDvopqsICWL-28" style="edgeStyle=orthogonalEdgeStyle;rounded=0;orthogonalLoop=1;jettySize=auto;html=1;" parent="1" source="RJzbwRpuguDvopqsICWL-7" edge="1">
          <mxGeometry relative="1" as="geometry">
            <mxPoint x="870" y="160" as="targetPoint" />
          </mxGeometry>
        </mxCell>
        <mxCell id="RJzbwRpuguDvopqsICWL-7" value="" style="shape=hexagon;perimeter=hexagonPerimeter2;whiteSpace=wrap;html=1;fixedSize=1;size=0;" parent="1" vertex="1">
          <mxGeometry x="660" y="120" width="120" height="80" as="geometry" />
        </mxCell>
        <mxCell id="RJzbwRpuguDvopqsICWL-18" style="edgeStyle=orthogonalEdgeStyle;rounded=0;orthogonalLoop=1;jettySize=auto;html=1;" parent="1" source="RJzbwRpuguDvopqsICWL-8" target="RJzbwRpuguDvopqsICWL-9" edge="1">
          <mxGeometry relative="1" as="geometry" />
        </mxCell>
        <mxCell id="RJzbwRpuguDvopqsICWL-8" value="" style="shape=hexagon;perimeter=hexagonPerimeter2;whiteSpace=wrap;html=1;fixedSize=1;size=0;" parent="1" vertex="1">
          <mxGeometry x="660" y="545" width="120" height="80" as="geometry" />
        </mxCell>
        <mxCell id="RJzbwRpuguDvopqsICWL-20" style="edgeStyle=orthogonalEdgeStyle;rounded=0;orthogonalLoop=1;jettySize=auto;html=1;" parent="1" source="RJzbwRpuguDvopqsICWL-9" edge="1">
          <mxGeometry relative="1" as="geometry">
            <mxPoint x="120" y="430" as="targetPoint" />
          </mxGeometry>
        </mxCell>
        <mxCell id="RJzbwRpuguDvopqsICWL-9" value="" style="shape=hexagon;perimeter=hexagonPerimeter2;whiteSpace=wrap;html=1;fixedSize=1;size=0;" parent="1" vertex="1">
          <mxGeometry x="60" y="545" width="120" height="80" as="geometry" />
        </mxCell>
        <mxCell id="RJzbwRpuguDvopqsICWL-10" value="" style="shape=hexagon;perimeter=hexagonPerimeter2;whiteSpace=wrap;html=1;fixedSize=1;size=-4;" parent="1" vertex="1">
          <mxGeometry x="354" y="350" width="120" height="80" as="geometry" />
        </mxCell>
        <mxCell id="RJzbwRpuguDvopqsICWL-11" value="AI" style="text;html=1;align=center;verticalAlign=middle;whiteSpace=wrap;rounded=0;" parent="1" vertex="1">
          <mxGeometry x="690" y="145" width="60" height="30" as="geometry" />
        </mxCell>
        <mxCell id="RJzbwRpuguDvopqsICWL-12" value="Déclanceur" style="text;html=1;align=center;verticalAlign=middle;whiteSpace=wrap;rounded=0;" parent="1" vertex="1">
          <mxGeometry x="690" y="570" width="60" height="30" as="geometry" />
        </mxCell>
        <mxCell id="RJzbwRpuguDvopqsICWL-13" value="Arrosseur Automatique" style="text;html=1;align=center;verticalAlign=middle;whiteSpace=wrap;rounded=0;" parent="1" vertex="1">
          <mxGeometry x="90" y="570" width="60" height="30" as="geometry" />
        </mxCell>
        <mxCell id="RJzbwRpuguDvopqsICWL-14" value="Batterie ou Paneau Solaire" style="text;html=1;align=center;verticalAlign=middle;whiteSpace=wrap;rounded=0;" parent="1" vertex="1">
          <mxGeometry x="364" y="375" width="100" height="30" as="geometry" />
        </mxCell>
        <mxCell id="RJzbwRpuguDvopqsICWL-23" value="" style="endArrow=classic;html=1;rounded=0;exitX=0.875;exitY=0.063;exitDx=0;exitDy=0;exitPerimeter=0;" parent="1" source="RJzbwRpuguDvopqsICWL-9" target="RJzbwRpuguDvopqsICWL-10" edge="1">
          <mxGeometry width="50" height="50" relative="1" as="geometry">
            <mxPoint x="170" y="540" as="sourcePoint" />
            <mxPoint x="300" y="450" as="targetPoint" />
          </mxGeometry>
        </mxCell>
        <mxCell id="RJzbwRpuguDvopqsICWL-24" value="" style="endArrow=classic;html=1;rounded=0;" parent="1" source="RJzbwRpuguDvopqsICWL-3" target="RJzbwRpuguDvopqsICWL-10" edge="1">
          <mxGeometry width="50" height="50" relative="1" as="geometry">
            <mxPoint x="190" y="300" as="sourcePoint" />
            <mxPoint x="240" y="250" as="targetPoint" />
          </mxGeometry>
        </mxCell>
        <mxCell id="RJzbwRpuguDvopqsICWL-25" value="" style="endArrow=classic;html=1;rounded=0;exitX=0.158;exitY=0.05;exitDx=0;exitDy=0;exitPerimeter=0;" parent="1" source="RJzbwRpuguDvopqsICWL-8" target="RJzbwRpuguDvopqsICWL-10" edge="1">
          <mxGeometry width="50" height="50" relative="1" as="geometry">
            <mxPoint x="540" y="430" as="sourcePoint" />
            <mxPoint x="590" y="380" as="targetPoint" />
          </mxGeometry>
        </mxCell>
        <mxCell id="RJzbwRpuguDvopqsICWL-26" value="Donne des données à" style="text;html=1;align=center;verticalAlign=middle;whiteSpace=wrap;rounded=0;" parent="1" vertex="1">
          <mxGeometry x="271" y="130" width="279" height="30" as="geometry" />
        </mxCell>
        <mxCell id="RJzbwRpuguDvopqsICWL-27" value="Envoi des données analyser à" style="text;html=1;align=center;verticalAlign=middle;whiteSpace=wrap;rounded=0;rotation=90;" parent="1" vertex="1">
          <mxGeometry x="660" y="345" width="170" height="30" as="geometry" />
        </mxCell>
        <mxCell id="RJzbwRpuguDvopqsICWL-29" value="Analyse les données" style="text;html=1;align=center;verticalAlign=middle;whiteSpace=wrap;rounded=0;" parent="1" vertex="1">
          <mxGeometry x="860" y="145" width="140" height="30" as="geometry" />
        </mxCell>
        <mxCell id="RJzbwRpuguDvopqsICWL-32" value="Capte les donnée des soles" style="text;html=1;align=center;verticalAlign=middle;whiteSpace=wrap;rounded=0;" parent="1" vertex="1">
          <mxGeometry x="-70" y="80" width="120" height="30" as="geometry" />
        </mxCell>
        <mxCell id="RJzbwRpuguDvopqsICWL-33" value="Arrose les plantes" style="text;html=1;align=center;verticalAlign=middle;whiteSpace=wrap;rounded=0;" parent="1" vertex="1">
          <mxGeometry x="-10" y="400" width="200" height="30" as="geometry" />
        </mxCell>
        <mxCell id="RJzbwRpuguDvopqsICWL-34" value="Donne des ordres à" style="text;html=1;align=center;verticalAlign=middle;whiteSpace=wrap;rounded=0;" parent="1" vertex="1">
          <mxGeometry x="384" y="555" width="196" height="30" as="geometry" />
        </mxCell>
        <mxCell id="RJzbwRpuguDvopqsICWL-35" value="Allimenté par" style="text;html=1;align=center;verticalAlign=middle;whiteSpace=wrap;rounded=0;rotation=40;" parent="1" vertex="1">
          <mxGeometry x="180" y="245" width="170" height="30" as="geometry" />
        </mxCell>
        <mxCell id="RJzbwRpuguDvopqsICWL-36" value="Allimenté par" style="text;html=1;align=center;verticalAlign=middle;whiteSpace=wrap;rounded=0;rotation=30;" parent="1" vertex="1">
          <mxGeometry x="490" y="450" width="170" height="30" as="geometry" />
        </mxCell>
        <mxCell id="RJzbwRpuguDvopqsICWL-37" value="Allimenté par" style="text;html=1;align=center;verticalAlign=middle;whiteSpace=wrap;rounded=0;rotation=-30;" parent="1" vertex="1">
          <mxGeometry x="170" y="450" width="170" height="30" as="geometry" />
        </mxCell>
      </root>
    </mxGraphModel>
  </diagram>
</mxfile>
